<?xml version="1.0" standalone="no"?>
<!DOCTYPE svg PUBLIC "-//W3C//DTD SVG 20010904//EN"
 "http://www.w3.org/TR/2001/REC-SVG-20010904/DTD/svg10.dtd">
<svg version="1.0" xmlns="http://www.w3.org/2000/svg"
 width="1398.000000pt" height="1398.000000pt" viewBox="0 0 1398.000000 1398.000000"
 preserveAspectRatio="xMidYMid meet">
<metadata>
Created by potrace 1.11, written by Peter Selinger 2001-2013
</metadata>
<g transform="translate(0.000000,1398.000000) scale(0.100000,-0.100000)"
fill="#000000" stroke="none">
<path d="M6535 13200 c-170 -11 -285 -22 -290 -30 -2 -3 1555 -1565 3459
-3469 l3463 -3463 7 68 c20 215 27 337 33 592 l6 284 -3014 3014 -3014 3014
-270 -2 c-148 -1 -319 -4 -380 -8z"/>
<path d="M10690 10696 c1312 -1312 2386 -2386 2387 -2386 2 0 -35 164 -61 265
-95 376 -227 741 -393 1085 l-84 175 -1352 1353 -1352 1353 -118 60 c-246 124
-591 261 -877 348 -137 41 -422 114 -495 126 -37 7 112 -145 2345 -2379z"/>
<path d="M5230 12979 c-176 -52 -342 -107 -475 -160 l-107 -41 4058 -4059
c2232 -2232 4062 -4055 4067 -4050 21 21 189 524 228 685 l12 48 -3809 3809
c-2095 2095 -3816 3809 -3824 3808 -8 0 -76 -19 -150 -40z"/>
<path d="M3815 12362 c-171 -104 -435 -281 -435 -291 0 -3 577 -583 1283
-1289 l1284 -1284 54 33 c172 101 427 158 658 146 l104 -5 -1394 1394 c-767
767 -1394 1394 -1394 1394 0 -1 -72 -45 -160 -98z"/>
<path d="M2695 11496 c-71 -68 -181 -178 -244 -245 l-114 -123 1384 -1384
c761 -761 1386 -1384 1389 -1384 3 0 23 48 44 108 50 135 154 342 230 456 l59
88 -1304 1304 c-717 717 -1306 1304 -1309 1304 -3 0 -63 -56 -135 -124z"/>
<path d="M1847 10519 c-70 -99 -186 -281 -267 -418 l-73 -123 1729 -1729 c950
-950 1729 -1727 1730 -1726 1 1 -3 49 -9 107 -6 58 -11 284 -11 503 l-1 397
-1526 1526 -1526 1526 -46 -63z"/>
<path d="M1175 9264 c-42 -101 -128 -357 -175 -523 l-52 -184 3800 -3800 3799
-3799 168 47 c212 59 575 182 575 195 0 3 -1822 1827 -4049 4054 l-4049 4049
-17 -39z"/>
<path d="M7951 8970 c462 -552 628 -1098 597 -1957 -10 -288 -56 -672 -116
-971 -14 -69 -16 -95 -7 -98 6 -3 58 -3 116 -2 l104 3 22 135 c21 122 51 373
68 554 l7 69 1656 -1656 c912 -912 1660 -1657 1663 -1657 11 0 205 291 300
449 l88 146 -1888 1890 -1888 1890 -37 125 c-115 389 -307 704 -631 1036 -94
96 -104 105 -54 44z"/>
<path d="M6491 8144 c-169 -45 -290 -172 -364 -379 -83 -233 -130 -640 -107
-925 32 -408 173 -699 385 -794 l40 -18 -57 59 c-60 61 -97 139 -133 282 -42
167 -57 465 -35 692 19 188 -38 222 455 -271 l432 -432 16 43 c82 228 127 475
127 692 l0 112 -347 347 -347 347 54 25 c115 52 277 55 388 6 25 -11 46 -20
49 -20 10 0 -59 90 -95 122 -122 110 -304 154 -461 112z"/>
<path d="M796 7644 c-18 -195 -26 -375 -26 -619 l0 -270 2994 -2994 2994
-2994 319 6 c279 6 606 26 618 39 2 2 -1548 1556 -3444 3452 l-3449 3449 -6
-69z"/>
<path d="M9124 5797 c-7 -18 59 -543 82 -655 9 -42 27 -103 40 -136 29 -67 33
-140 11 -183 -80 -154 -416 -256 -737 -224 -320 32 -552 110 -758 254 l-64 44
-51 -34 c-159 -107 -398 -192 -702 -248 -272 -51 -448 -42 -665 32 -165 56
-303 132 -468 260 l-97 74 110 -109 c263 -260 535 -413 830 -467 92 -17 272
-19 360 -5 l60 10 1447 -1447 1446 -1446 109 63 c109 63 399 250 462 297 l33
26 -1376 1376 -1376 1376 35 24 35 24 72 -50 c166 -114 316 -174 563 -224 92
-19 145 -23 323 -24 l213 -1 1029 -1029 1028 -1028 27 17 c15 10 128 119 252
243 l225 226 -1122 1122 -1122 1122 -29 229 c-38 303 -48 362 -70 405 -19 38
-72 89 -92 89 -7 0 -22 3 -34 6 -15 4 -25 1 -29 -9z"/>
<path d="M910 5609 c0 -9 20 -94 44 -190 110 -432 248 -805 440 -1186 l85
-168 1293 -1292 1293 -1292 215 -105 c320 -156 595 -262 924 -357 153 -44 409
-110 413 -106 1 2 -1057 1062 -2352 2357 -1295 1295 -2355 2348 -2355 2339z"/>
</g>
</svg>
